<svg xmlns="http://www.w3.org/2000/svg" viewBox="0 0 940 370" width="100%" height="auto" fill="none">
  <defs>
    <style>
      @keyframes radarExpand {
        0% { transform: scale(0.1); opacity: 0; }
        70% { transform: scale(1.04); opacity: 0.95; }
        100% { transform: scale(1); opacity: 1; }
      }
      @keyframes radarSweep {
        0% { transform: rotate(0deg); }
        100% { transform: rotate(360deg); }
      }
      @keyframes vertexPop {
        0% { transform: scale(0); opacity: 0; }
        100% { transform: scale(1); opacity: 1; }
      }
      @keyframes barGrow {
        0% { transform: scaleX(0); }
        100% { transform: scaleX(1); }
      }
      .radar-poly {
        transform-origin: 245px 215px;
        animation: radarExpand 1.0s cubic-bezier(0.16, 1, 0.3, 1) forwards;
      }
      .radar-sweep-beam {
        transform-origin: 245px 215px;
        animation: radarSweep 8s linear infinite;
      }
      .vertex-dot {
        transform-box: fill-box;
        transform-origin: center;
        opacity: 0;
        animation: vertexPop 0.4s ease-out forwards;
      }
      .hud-bar {
        transform-origin: left center;
        animation: barGrow 0.9s cubic-bezier(0.16, 1, 0.3, 1) both;
      }
    </style>
    <linearGradient id="radarSweepGrad" x1="0%" y1="0%" x2="100%" y2="100%">
      <stop offset="0%" stop-color="#ffffff" stop-opacity="0.15"/>
      <stop offset="100%" stop-color="#ffffff" stop-opacity="0.0"/>
    </linearGradient>
  </defs>

  <!-- Card Background -->
  <rect width="940" height="370" rx="12" fill="#0d1117" stroke="#30363d" stroke-width="1"/>

  <!-- Card Header -->
  <g transform="translate(24, 34)">
    <rect x="0" y="0" width="28" height="20" rx="4" fill="#161b22" stroke="#30363d" stroke-width="1"/>
    <text x="6" y="14" fill="#ffffff" font-family="monospace" font-size="12" font-weight="bold">~/</text>
    <text x="38" y="15" fill="#ffffff" font-family="-apple-system, BlinkMacSystemFont, 'Segoe UI', Helvetica, Arial, sans-serif" font-size="14" font-weight="600">Technical Capability &amp; Skill Radar</text>
    <text x="892" y="14" text-anchor="end" fill="#8b949e" font-family="-apple-system, BlinkMacSystemFont, 'Segoe UI', Helvetica, Arial, sans-serif" font-size="11">Specialist Breakdown</text>
    <line x1="0" y1="28" x2="892" y2="28" stroke="#21262d" stroke-width="1"/>
  </g>

  <!-- Left: Skill Radar -->
  <g>
    <!-- Background Rotating Sweep Beam -->
    <path class="radar-sweep-beam" d="M 245 215 L 245 120 A 95 95 0 0 1 312.16499999999996 147.835 Z" fill="url(#radarSweepGrad)"/>
    <polygon points="245.0,191.2 254.1,193.1 261.8,198.2 266.9,205.9 268.8,215.0 266.9,224.1 261.8,231.8 254.1,236.9 245.0,238.8 235.9,236.9 228.2,231.8 223.1,224.1 221.2,215.0 223.1,205.9 228.2,198.2 235.9,193.1" fill="none" stroke="#21262d" stroke-width="1" stroke-dasharray="3,3"/>
    <polygon points="245.0,167.5 263.2,171.1 278.6,181.4 288.9,196.8 292.5,215.0 288.9,233.2 278.6,248.6 263.2,258.9 245.0,262.5 226.8,258.9 211.4,248.6 201.1,233.2 197.5,215.0 201.1,196.8 211.4,181.4 226.8,171.1" fill="none" stroke="#21262d" stroke-width="1" stroke-dasharray="3,3"/>
    <polygon points="245.0,143.8 272.3,149.2 295.4,164.6 310.8,187.7 316.2,215.0 310.8,242.3 295.4,265.4 272.3,280.8 245.0,286.2 217.7,280.8 194.6,265.4 179.2,242.3 173.8,215.0 179.2,187.7 194.6,164.6 217.7,149.2" fill="none" stroke="#21262d" stroke-width="1" stroke-dasharray="3,3"/>
    <polygon points="245.0,120.0 281.4,127.2 312.2,147.8 332.8,178.6 340.0,215.0 332.8,251.4 312.2,282.2 281.4,302.8 245.0,310.0 208.6,302.8 177.8,282.2 157.2,251.4 150.0,215.0 157.2,178.6 177.8,147.8 208.6,127.2" fill="none" stroke="#30363d" stroke-width="1" />
    <line x1="245" y1="215" x2="245.0" y2="120.0" stroke="#21262d" stroke-width="1"/>
    <line x1="245" y1="215" x2="281.4" y2="127.2" stroke="#21262d" stroke-width="1"/>
    <line x1="245" y1="215" x2="312.2" y2="147.8" stroke="#21262d" stroke-width="1"/>
    <line x1="245" y1="215" x2="332.8" y2="178.6" stroke="#21262d" stroke-width="1"/>
    <line x1="245" y1="215" x2="340.0" y2="215.0" stroke="#21262d" stroke-width="1"/>
    <line x1="245" y1="215" x2="332.8" y2="251.4" stroke="#21262d" stroke-width="1"/>
    <line x1="245" y1="215" x2="312.2" y2="282.2" stroke="#21262d" stroke-width="1"/>
    <line x1="245" y1="215" x2="281.4" y2="302.8" stroke="#21262d" stroke-width="1"/>
    <line x1="245" y1="215" x2="245.0" y2="310.0" stroke="#21262d" stroke-width="1"/>
    <line x1="245" y1="215" x2="208.6" y2="302.8" stroke="#21262d" stroke-width="1"/>
    <line x1="245" y1="215" x2="177.8" y2="282.2" stroke="#21262d" stroke-width="1"/>
    <line x1="245" y1="215" x2="157.2" y2="251.4" stroke="#21262d" stroke-width="1"/>
    <line x1="245" y1="215" x2="150.0" y2="215.0" stroke="#21262d" stroke-width="1"/>
    <line x1="245" y1="215" x2="157.2" y2="178.6" stroke="#21262d" stroke-width="1"/>
    <line x1="245" y1="215" x2="177.8" y2="147.8" stroke="#21262d" stroke-width="1"/>
    <line x1="245" y1="215" x2="208.6" y2="127.2" stroke="#21262d" stroke-width="1"/>
    <!-- Radar Data Polygon -->
    <polygon class="radar-poly" points="245.0,129.5 277.0,137.8 302.1,157.9 319.6,184.1 328.6,215.0 317.0,244.8 297.4,267.4 272.3,280.8 245.0,281.5 216.6,283.5 199.3,260.7 167.8,247.0 165.2,215.0 173.0,185.2 195.3,165.3 214.1,140.4" fill="rgba(255, 255, 255, 0.09)" stroke="#ffffff" stroke-width="1.8"/>

    <circle class="vertex-dot" cx="245.0" cy="129.5" r="3.5" fill="#ffffff" stroke="#0d1117" stroke-width="1.5" style="animation-delay: 0.30s;"/>
    <circle class="vertex-dot" cx="277.0" cy="137.8" r="3.5" fill="#ffffff" stroke="#0d1117" stroke-width="1.5" style="animation-delay: 0.38s;"/>
    <circle class="vertex-dot" cx="302.1" cy="157.9" r="3.5" fill="#ffffff" stroke="#0d1117" stroke-width="1.5" style="animation-delay: 0.46s;"/>
    <circle class="vertex-dot" cx="319.6" cy="184.1" r="3.5" fill="#ffffff" stroke="#0d1117" stroke-width="1.5" style="animation-delay: 0.54s;"/>
    <circle class="vertex-dot" cx="328.6" cy="215.0" r="3.5" fill="#ffffff" stroke="#0d1117" stroke-width="1.5" style="animation-delay: 0.62s;"/>
    <circle class="vertex-dot" cx="317.0" cy="244.8" r="3.5" fill="#ffffff" stroke="#0d1117" stroke-width="1.5" style="animation-delay: 0.70s;"/>
    <circle class="vertex-dot" cx="297.4" cy="267.4" r="3.5" fill="#ffffff" stroke="#0d1117" stroke-width="1.5" style="animation-delay: 0.78s;"/>
    <circle class="vertex-dot" cx="272.3" cy="280.8" r="3.5" fill="#ffffff" stroke="#0d1117" stroke-width="1.5" style="animation-delay: 0.86s;"/>
    <circle class="vertex-dot" cx="245.0" cy="281.5" r="3.5" fill="#ffffff" stroke="#0d1117" stroke-width="1.5" style="animation-delay: 0.94s;"/>
    <circle class="vertex-dot" cx="216.6" cy="283.5" r="3.5" fill="#ffffff" stroke="#0d1117" stroke-width="1.5" style="animation-delay: 1.02s;"/>
    <circle class="vertex-dot" cx="199.3" cy="260.7" r="3.5" fill="#ffffff" stroke="#0d1117" stroke-width="1.5" style="animation-delay: 1.10s;"/>
    <circle class="vertex-dot" cx="167.8" cy="247.0" r="3.5" fill="#ffffff" stroke="#0d1117" stroke-width="1.5" style="animation-delay: 1.18s;"/>
    <circle class="vertex-dot" cx="165.2" cy="215.0" r="3.5" fill="#ffffff" stroke="#0d1117" stroke-width="1.5" style="animation-delay: 1.26s;"/>
    <circle class="vertex-dot" cx="173.0" cy="185.2" r="3.5" fill="#ffffff" stroke="#0d1117" stroke-width="1.5" style="animation-delay: 1.34s;"/>
    <circle class="vertex-dot" cx="195.3" cy="165.3" r="3.5" fill="#ffffff" stroke="#0d1117" stroke-width="1.5" style="animation-delay: 1.42s;"/>
    <circle class="vertex-dot" cx="214.1" cy="140.4" r="3.5" fill="#ffffff" stroke="#0d1117" stroke-width="1.5" style="animation-delay: 1.50s;"/>
    <text x="245.0" y="108.0" text-anchor="middle" fill="#c9d1d9" font-family="-apple-system, BlinkMacSystemFont, 'Segoe UI', Helvetica, Arial, sans-serif" font-size="11" font-weight="500">Power BI</text>
    <text x="288.2" y="116.4" text-anchor="start" fill="#c9d1d9" font-family="-apple-system, BlinkMacSystemFont, 'Segoe UI', Helvetica, Arial, sans-serif" font-size="11" font-weight="500">SQL</text>
    <text x="324.9" y="140.5" text-anchor="start" fill="#c9d1d9" font-family="-apple-system, BlinkMacSystemFont, 'Segoe UI', Helvetica, Arial, sans-serif" font-size="11" font-weight="500">Python</text>
    <text x="349.4" y="176.5" text-anchor="start" fill="#c9d1d9" font-family="-apple-system, BlinkMacSystemFont, 'Segoe UI', Helvetica, Arial, sans-serif" font-size="11" font-weight="500">Excel</text>
    <text x="358.0" y="219.0" text-anchor="start" fill="#c9d1d9" font-family="-apple-system, BlinkMacSystemFont, 'Segoe UI', Helvetica, Arial, sans-serif" font-size="11" font-weight="500">Data Visualization</text>
    <text x="349.4" y="261.5" text-anchor="start" fill="#c9d1d9" font-family="-apple-system, BlinkMacSystemFont, 'Segoe UI', Helvetica, Arial, sans-serif" font-size="11" font-weight="500">Pandas / NumPy</text>
    <text x="324.9" y="297.5" text-anchor="start" fill="#c9d1d9" font-family="-apple-system, BlinkMacSystemFont, 'Segoe UI', Helvetica, Arial, sans-serif" font-size="11" font-weight="500">Statistics</text>
    <text x="288.2" y="321.6" text-anchor="start" fill="#c9d1d9" font-family="-apple-system, BlinkMacSystemFont, 'Segoe UI', Helvetica, Arial, sans-serif" font-size="11" font-weight="500">Machine Learning</text>
    <text x="245.0" y="330.0" text-anchor="middle" fill="#c9d1d9" font-family="-apple-system, BlinkMacSystemFont, 'Segoe UI', Helvetica, Arial, sans-serif" font-size="11" font-weight="500">Deep Learning</text>
    <text x="201.8" y="321.6" text-anchor="end" fill="#c9d1d9" font-family="-apple-system, BlinkMacSystemFont, 'Segoe UI', Helvetica, Arial, sans-serif" font-size="11" font-weight="500">Python / PyTorch</text>
    <text x="165.1" y="297.5" text-anchor="end" fill="#c9d1d9" font-family="-apple-system, BlinkMacSystemFont, 'Segoe UI', Helvetica, Arial, sans-serif" font-size="11" font-weight="500">Model Deployment</text>
    <text x="140.6" y="261.5" text-anchor="end" fill="#c9d1d9" font-family="-apple-system, BlinkMacSystemFont, 'Segoe UI', Helvetica, Arial, sans-serif" font-size="11" font-weight="500">React Native</text>
    <text x="132.0" y="219.0" text-anchor="end" fill="#c9d1d9" font-family="-apple-system, BlinkMacSystemFont, 'Segoe UI', Helvetica, Arial, sans-serif" font-size="11" font-weight="500">Next.js / React</text>
    <text x="140.6" y="176.5" text-anchor="end" fill="#c9d1d9" font-family="-apple-system, BlinkMacSystemFont, 'Segoe UI', Helvetica, Arial, sans-serif" font-size="11" font-weight="500">TypeScript</text>
    <text x="165.1" y="140.5" text-anchor="end" fill="#c9d1d9" font-family="-apple-system, BlinkMacSystemFont, 'Segoe UI', Helvetica, Arial, sans-serif" font-size="11" font-weight="500">Kotlin / Android</text>
    <text x="201.8" y="116.4" text-anchor="end" fill="#c9d1d9" font-family="-apple-system, BlinkMacSystemFont, 'Segoe UI', Helvetica, Arial, sans-serif" font-size="11" font-weight="500">Git &amp; CI/CD</text>
  </g>

  <!-- Center Divider -->
  <line x1="455" y1="80" x2="455" y2="340" stroke="#21262d" stroke-width="1" stroke-dasharray="4,4"/>

  <!-- Right: Proficiency Progress HUD -->
  <g>

    <!-- Skill 1: Power BI -->
    <g transform="translate(480, 95)">
      <text x="0" y="0" fill="#e6edf3" font-family="-apple-system, BlinkMacSystemFont, 'Segoe UI', Helvetica, Arial, sans-serif" font-size="12" font-weight="600">Power BI</text>
      <text x="415" y="0" text-anchor="end" fill="#8b949e" font-family="-apple-system, BlinkMacSystemFont, 'Segoe UI', Helvetica, Arial, sans-serif" font-size="11">Data Analytics • <tspan fill="#ffffff" font-weight="600">90%</tspan></text>
      <!-- Track -->
      <rect x="0" y="8" width="415" height="6" rx="3" fill="#161b22" stroke="#21262d" stroke-width="1"/>
      <!-- Fill with CSS grow animation -->
      <rect class="hud-bar bar-0" x="0" y="8" width="373.5" height="6" rx="3" fill="#ffffff" style="animation-delay: 0.20s;"/>
    </g>

    <!-- Skill 2: SQL -->
    <g transform="translate(480, 135)">
      <text x="0" y="0" fill="#e6edf3" font-family="-apple-system, BlinkMacSystemFont, 'Segoe UI', Helvetica, Arial, sans-serif" font-size="12" font-weight="600">SQL</text>
      <text x="415" y="0" text-anchor="end" fill="#8b949e" font-family="-apple-system, BlinkMacSystemFont, 'Segoe UI', Helvetica, Arial, sans-serif" font-size="11">Data Analytics • <tspan fill="#ffffff" font-weight="600">88%</tspan></text>
      <!-- Track -->
      <rect x="0" y="8" width="415" height="6" rx="3" fill="#161b22" stroke="#21262d" stroke-width="1"/>
      <!-- Fill with CSS grow animation -->
      <rect class="hud-bar bar-1" x="0" y="8" width="365.2" height="6" rx="3" fill="#ffffff" style="animation-delay: 0.32s;"/>
    </g>

    <!-- Skill 3: Data Visualization -->
    <g transform="translate(480, 175)">
      <text x="0" y="0" fill="#e6edf3" font-family="-apple-system, BlinkMacSystemFont, 'Segoe UI', Helvetica, Arial, sans-serif" font-size="12" font-weight="600">Data Visualization</text>
      <text x="415" y="0" text-anchor="end" fill="#8b949e" font-family="-apple-system, BlinkMacSystemFont, 'Segoe UI', Helvetica, Arial, sans-serif" font-size="11">Data Analytics • <tspan fill="#ffffff" font-weight="600">88%</tspan></text>
      <!-- Track -->
      <rect x="0" y="8" width="415" height="6" rx="3" fill="#161b22" stroke="#21262d" stroke-width="1"/>
      <!-- Fill with CSS grow animation -->
      <rect class="hud-bar bar-2" x="0" y="8" width="365.2" height="6" rx="3" fill="#ffffff" style="animation-delay: 0.44s;"/>
    </g>

    <!-- Skill 4: React Native -->
    <g transform="translate(480, 215)">
      <text x="0" y="0" fill="#e6edf3" font-family="-apple-system, BlinkMacSystemFont, 'Segoe UI', Helvetica, Arial, sans-serif" font-size="12" font-weight="600">React Native</text>
      <text x="415" y="0" text-anchor="end" fill="#8b949e" font-family="-apple-system, BlinkMacSystemFont, 'Segoe UI', Helvetica, Arial, sans-serif" font-size="11">Mobile • <tspan fill="#ffffff" font-weight="600">88%</tspan></text>
      <!-- Track -->
      <rect x="0" y="8" width="415" height="6" rx="3" fill="#161b22" stroke="#21262d" stroke-width="1"/>
      <!-- Fill with CSS grow animation -->
      <rect class="hud-bar bar-3" x="0" y="8" width="365.2" height="6" rx="3" fill="#ffffff" style="animation-delay: 0.56s;"/>
    </g>

    <!-- Skill 5: Python -->
    <g transform="translate(480, 255)">
      <text x="0" y="0" fill="#e6edf3" font-family="-apple-system, BlinkMacSystemFont, 'Segoe UI', Helvetica, Arial, sans-serif" font-size="12" font-weight="600">Python</text>
      <text x="415" y="0" text-anchor="end" fill="#8b949e" font-family="-apple-system, BlinkMacSystemFont, 'Segoe UI', Helvetica, Arial, sans-serif" font-size="11">Data Analytics • <tspan fill="#ffffff" font-weight="600">85%</tspan></text>
      <!-- Track -->
      <rect x="0" y="8" width="415" height="6" rx="3" fill="#161b22" stroke="#21262d" stroke-width="1"/>
      <!-- Fill with CSS grow animation -->
      <rect class="hud-bar bar-4" x="0" y="8" width="352.8" height="6" rx="3" fill="#ffffff" style="animation-delay: 0.68s;"/>
    </g>

    <!-- Skill 6: Excel -->
    <g transform="translate(480, 295)">
      <text x="0" y="0" fill="#e6edf3" font-family="-apple-system, BlinkMacSystemFont, 'Segoe UI', Helvetica, Arial, sans-serif" font-size="12" font-weight="600">Excel</text>
      <text x="415" y="0" text-anchor="end" fill="#8b949e" font-family="-apple-system, BlinkMacSystemFont, 'Segoe UI', Helvetica, Arial, sans-serif" font-size="11">Data Analytics • <tspan fill="#ffffff" font-weight="600">85%</tspan></text>
      <!-- Track -->
      <rect x="0" y="8" width="415" height="6" rx="3" fill="#161b22" stroke="#21262d" stroke-width="1"/>
      <!-- Fill with CSS grow animation -->
      <rect class="hud-bar bar-5" x="0" y="8" width="352.8" height="6" rx="3" fill="#ffffff" style="animation-delay: 0.80s;"/>
    </g>
  </g>
</svg>
